<svg width="128.000000pt" height="128.000000pt" viewBox="0 0 128.000000 128.000000" xmlns="http://www.w3.org/2000/svg">
  <g transform="translate(0.000000,128.000000) scale(0.100000,-0.100000)" fill="#b7b4b4" stroke="none">
    <path d="M563 1103 c-8 -57 -23 -100 -60 -172 -26 -53 -49 -99 -51 -102 -2 -5
29 -28 130 -93 26 -17 26 -17 21 5 -9 34 43 0 132 -86 93 -91 293 -225 305
-205 70 113 7 349 -137 509 -40 45 -40 45 -35 -16 4 -61 -19 -138 -32 -103
-38 106 -53 137 -83 182 -50 74 -71 97 -122 129 -59 38 -55 40 -68 -48z" />
    <path d="M131 967 c-6 -6 -11 -16 -11 -22 0 -11 1040 -711 1044 -703 1 2 7 11
15 20 16 22 -1028 725 -1048 705z" />
    <path d="M262 695 c-94 -190 -52 -335 131 -455 94 -61 140 -46 77 26 -64 73
-66 129 -11 235 61 116 62 113 -54 191 -119 82 -104 82 -143 3z" />
    <path d="M835 353 c-9 -21 -30 -55 -46 -76 -66 -82 -19 -97 81 -25 91 65 92
69 36 107 -55 38 -53 39 -71 -6z" />
  </g>
</svg>
