<svg width="128.000000pt" height="128.000000pt" viewBox="0 0 128.000000 128.000000" xmlns="http://www.w3.org/2000/svg">
  <g transform="translate(0.000000,128.000000) scale(0.100000,-0.100000)" fill="#d8210a" stroke="none">
    <path d="M563 1105 c-13 -90 -67 -209 -139 -305 -49 -65 -49 -65 -55 -10 -11
91 -31 118 -43 59 -3 -18 -26 -75 -51 -128 -106 -223 -74 -355 118 -481 94
-61 140 -46 77 26 -63 72 -66 130 -13 230 20 38 41 88 47 111 11 43 11 43 35
8 13 -19 27 -50 30 -67 19 -90 56 73 38 170 -9 55 20 41 118 -53 135 -130 159
-262 69 -381 -66 -87 -33 -107 65 -40 258 176 276 457 44 715 -40 45 -40 45
-35 -16 4 -61 -19 -138 -32 -103 -38 106 -53 137 -83 182 -50 74 -71 97 -122
129 -59 38 -55 40 -68 -46z" />
  </g>
</svg>
